# xmcd
#
# Track frame offsets: 
#        150
#        34197
#        109473
#        128022
#        158397
#        169089
#        169575
#        179349
#        182427
#        191823
#        239991
#        250953
#        251385
#        258756
#        265425
#        298257
#        309003
#        312027
#        321126
#
# Disc length: 4310 seconds
#
# Revision: 0
# Processed by: cddbd v1.5.2PL0 Copyright (c) Steve Scherf et al.
# Submitted via: ExactAudioCopy v0.95b3
#
DISCID=0810d413
DTITLE=The Beatles  - The Days In Their Life - Vol.01  FLAC
DYEAR=1900
DGENRE=
TTITLE0=Program Intro
TTITLE1=Narrative
TTITLE2=Narrative
TTITLE3=Narrative
TTITLE4=Cry For A Shadow
TTITLE5=Narrative
TTITLE6=Ain't She Sweet
TTITLE7=Narrative
TTITLE8=My Bonnie
TTITLE9=Narrative
TTITLE10=Take Good Care Of My Baby
TTITLE11=Narrative
TTITLE12=Hello Little Girl
TTITLE13=Narrative
TTITLE14=Narrative
TTITLE15=Love Me Do
TTITLE16=Narrative
TTITLE17=S. I Love You
TTITLE18=Narrative
EXTD=
EXTT0=
EXTT1=
EXTT2=
EXTT3=
EXTT4=
EXTT5=
EXTT6=
EXTT7=
EXTT8=
EXTT9=
EXTT10=
EXTT11=
EXTT12=
EXTT13=
EXTT14=
EXTT15=
EXTT16=
EXTT17=
EXTT18=
PLAYORDER=
